# xmcd
# 
# Track frame offsets:
#     150
#     16252
#     30040
#     37827
#     51272
# 
# Disc length: 760
# 
# Revision: 0
# Processed by: cddbd v1.5.2PL0 Copyright (c) Steve Scherf et al.
# Submitted via: BonkEnc v1.0.15
# 
DISCID=2902f605
DTITLE=Sneeze - DOCTOR OF LOVE
DYEAR=1999
DGENRE=Blues
TTITLE0=DOCTOR OF LOVE
TTITLE1=RUMOUR,CONJECTURE,SPECULATION,HEARSAY
TTITLE2=LOUD&TRUE
TTITLE3=WHEN HONEY SNAPS(LIVE)
TTITLE4=9／9／999
EXTD=
EXTT0=
EXTT1=
EXTT2=
EXTT3=
EXTT4=
PLAYORDER=
